<?xml version="1.0" encoding="utf-8"?>
<!-- Generator: Adobe Illustrator 16.0.0, SVG Export Plug-In . SVG Version: 6.00 Build 0)  -->
<!DOCTYPE svg PUBLIC "-//W3C//DTD SVG 1.0//EN" "http://www.w3.org/TR/2001/REC-SVG-20010904/DTD/svg10.dtd">
<svg version="1.0" id="Layer_1" xmlns="http://www.w3.org/2000/svg" xmlns:xlink="http://www.w3.org/1999/xlink" x="0px" y="0px"
	 width="100px" height="100px" viewBox="0 0 100 100" enable-background="new 0 0 100 100" xml:space="preserve">
<polygon fill="#8BC34A" points="30,23.333 30,10 10,10 10,16.666 23.333,16.666 23.333,29.999 43.333,29.999 43.333,23.333 "/>
<polygon fill="#8BC34A" points="70,63.331 70,49.999 50,49.999 50,56.665 63.333,56.665 63.333,69.997 76.667,69.997 76.667,63.331 
	"/>
<polygon fill="#263238" points="56.667,29.999 70,29.999 70,10 63.333,10 63.333,23.331 50,23.331 50,43.332 56.667,43.332 "/>
<polygon fill="#263238" points="16.667,36.665 16.667,23.333 10,23.333 10,43.332 30,43.332 30,36.665 "/>
<rect x="36.667" y="10" fill="#263238" width="20" height="6.667"/>
<rect x="76.667" y="10" fill="#8BC34A" width="13.333" height="6.667"/>
<polygon fill="#263238" points="83.333,36.665 83.333,23.333 76.667,23.333 76.667,36.665 63.333,36.665 63.333,43.332 90,43.332 
	90,36.665 "/>
<polygon fill="#263238" points="76.667,49.999 76.667,56.665 83.333,56.665 83.333,69.997 90,69.997 90,49.999 "/>
<polygon fill="#263238" points="43.333,76.665 36.667,76.665 36.667,83.33 23.333,83.33 23.333,89.996 43.333,89.996 "/>
<polygon fill="#263238" points="36.667,49.999 23.337,49.999 23.337,56.665 43.333,56.665 43.333,36.665 36.667,36.665 "/>
<polygon fill="#8BC34A" points="30,76.665 30,63.331 16.667,63.331 16.667,49.999 10,49.999 10,90 16.667,90 16.667,69.997 
	23.333,69.997 23.331,76.665 "/>
<polygon fill="#263238" points="36.667,63.331 36.667,70.001 50,70.001 50,89.996 56.667,89.996 56.667,63.331 "/>
<polygon fill="#263238" points="63.333,76.665 63.333,83.334 83.333,83.334 83.333,89.996 90,89.996 90,76.665 "/>
</svg>
